<svg xmlns="http://www.w3.org/2000/svg" xmlns:xlink="http://www.w3.org/1999/xlink" width="2000" zoomAndPan="magnify" viewBox="0 0 1500 1499.999933" height="2000" preserveAspectRatio="xMidYMid meet" version="1.0"><defs><g/></defs><g fill="#c66a3d" fill-opacity="1"><g transform="translate(7.355793, 984.580705)"><g><path d="M 341.5 -424.921875 C 339.894531 -407.316406 338.789062 -390.3125 338.1875 -373.90625 C 337.59375 -357.5 337.296875 -344.894531 337.296875 -336.09375 C 337.296875 -328.09375 337.492188 -320.488281 337.890625 -313.28125 C 338.296875 -306.082031 338.695312 -300.082031 339.09375 -295.28125 L 325.296875 -295.28125 C 321.296875 -324.488281 315.09375 -347.59375 306.6875 -364.59375 C 298.28125 -381.601562 287.375 -393.609375 273.96875 -400.609375 C 260.570312 -407.617188 244.867188 -411.125 226.859375 -411.125 L 202.265625 -411.125 C 190.660156 -411.125 181.851562 -410.117188 175.84375 -408.109375 C 169.84375 -406.109375 165.84375 -402.109375 163.84375 -396.109375 C 161.84375 -390.109375 160.84375 -380.90625 160.84375 -368.5 L 160.84375 -56.421875 C 160.84375 -44.015625 161.84375 -34.8125 163.84375 -28.8125 C 165.84375 -22.8125 169.84375 -18.804688 175.84375 -16.796875 C 181.851562 -14.796875 190.660156 -13.796875 202.265625 -13.796875 L 231.671875 -13.796875 C 249.671875 -13.796875 265.570312 -17.695312 279.375 -25.5 C 293.175781 -33.300781 304.976562 -46.601562 314.78125 -65.40625 C 324.59375 -84.21875 332.097656 -109.628906 337.296875 -141.640625 L 351.09375 -141.640625 C 349.894531 -128.835938 349.296875 -112.03125 349.296875 -91.21875 C 349.296875 -82.019531 349.492188 -69.015625 349.890625 -52.203125 C 350.296875 -35.398438 351.5 -18 353.5 0 C 333.09375 -0.800781 310.085938 -1.300781 284.484375 -1.5 C 258.878906 -1.695312 236.070312 -1.796875 216.0625 -1.796875 C 206.0625 -1.796875 193.257812 -1.796875 177.65625 -1.796875 C 162.050781 -1.796875 145.242188 -1.695312 127.234375 -1.5 C 109.234375 -1.300781 91.03125 -1.097656 72.625 -0.890625 C 54.21875 -0.691406 36.8125 -0.394531 20.40625 0 L 20.40625 -12 C 33.207031 -12.800781 42.804688 -14.398438 49.203125 -16.796875 C 55.609375 -19.203125 59.910156 -24.003906 62.109375 -31.203125 C 64.316406 -38.410156 65.421875 -49.21875 65.421875 -63.625 L 65.421875 -361.296875 C 65.421875 -376.109375 64.316406 -387.015625 62.109375 -394.015625 C 59.910156 -401.015625 55.507812 -405.8125 48.90625 -408.40625 C 42.3125 -411.007812 32.8125 -412.515625 20.40625 -412.921875 L 20.40625 -424.921875 C 36.8125 -424.523438 54.21875 -424.222656 72.625 -424.015625 C 91.03125 -423.816406 109.234375 -423.617188 127.234375 -423.421875 C 145.242188 -423.222656 162.050781 -423.125 177.65625 -423.125 C 193.257812 -423.125 206.0625 -423.125 216.0625 -423.125 C 234.46875 -423.125 255.375 -423.222656 278.78125 -423.421875 C 302.1875 -423.617188 323.09375 -424.117188 341.5 -424.921875 Z M 247.875 -219.65625 C 247.875 -219.65625 247.875 -217.65625 247.875 -213.65625 C 247.875 -209.65625 247.875 -207.65625 247.875 -207.65625 L 142.84375 -207.65625 C 142.84375 -207.65625 142.84375 -209.65625 142.84375 -213.65625 C 142.84375 -217.65625 142.84375 -219.65625 142.84375 -219.65625 Z M 265.28125 -298.890625 C 263.675781 -276.078125 262.972656 -258.671875 263.171875 -246.671875 C 263.367188 -234.671875 263.46875 -223.664062 263.46875 -213.65625 C 263.46875 -203.65625 263.664062 -192.648438 264.0625 -180.640625 C 264.46875 -168.640625 265.472656 -151.238281 267.078125 -128.4375 L 253.265625 -128.4375 C 251.265625 -142.4375 247.5625 -155.4375 242.15625 -167.4375 C 236.757812 -179.445312 229.0625 -189.148438 219.0625 -196.546875 C 209.0625 -203.953125 196.054688 -207.65625 180.046875 -207.65625 L 180.046875 -219.65625 C 192.054688 -219.65625 202.257812 -222.15625 210.65625 -227.15625 C 219.0625 -232.164062 225.960938 -238.769531 231.359375 -246.96875 C 236.765625 -255.175781 241.066406 -263.878906 244.265625 -273.078125 C 247.472656 -282.273438 249.875 -290.878906 251.46875 -298.890625 Z M 265.28125 -298.890625 "/></g></g></g><g fill="#c66a3d" fill-opacity="1"><g transform="translate(390.860505, 984.580705)"><g><path d="M 205.859375 -424.921875 C 284.679688 -424.921875 343.296875 -407.015625 381.703125 -371.203125 C 420.117188 -335.390625 439.328125 -284.078125 439.328125 -217.265625 C 439.328125 -173.648438 429.921875 -135.535156 411.109375 -102.921875 C 392.304688 -70.316406 365 -45.007812 329.1875 -27 C 293.382812 -9 250.472656 0 200.453125 0 C 194.054688 0 185.65625 -0.195312 175.25 -0.59375 C 164.84375 -1 154.035156 -1.300781 142.828125 -1.5 C 131.628906 -1.695312 121.628906 -1.796875 112.828125 -1.796875 C 95.222656 -1.796875 77.914062 -1.695312 60.90625 -1.5 C 43.90625 -1.300781 30.40625 -0.800781 20.40625 0 L 20.40625 -12 C 33.207031 -12.800781 42.804688 -14.398438 49.203125 -16.796875 C 55.609375 -19.203125 59.910156 -24.003906 62.109375 -31.203125 C 64.316406 -38.410156 65.421875 -49.21875 65.421875 -63.625 L 65.421875 -361.296875 C 65.421875 -376.109375 64.316406 -387.015625 62.109375 -394.015625 C 59.910156 -401.015625 55.507812 -405.8125 48.90625 -408.40625 C 42.3125 -411.007812 32.8125 -412.515625 20.40625 -412.921875 L 20.40625 -424.921875 C 30.40625 -424.523438 43.90625 -424.023438 60.90625 -423.421875 C 77.914062 -422.816406 94.820312 -422.71875 111.625 -423.125 C 126.03125 -423.519531 142.335938 -423.914062 160.546875 -424.3125 C 178.753906 -424.71875 193.859375 -424.921875 205.859375 -424.921875 Z M 205.265625 -414.125 C 186.859375 -414.125 174.851562 -410.722656 169.25 -403.921875 C 163.644531 -397.117188 160.84375 -383.3125 160.84375 -362.5 L 160.84375 -62.421875 C 160.84375 -41.609375 163.742188 -27.800781 169.546875 -21 C 175.347656 -14.195312 187.453125 -10.796875 205.859375 -10.796875 C 239.460938 -10.796875 265.96875 -18.695312 285.375 -34.5 C 304.78125 -50.3125 318.6875 -73.421875 327.09375 -103.828125 C 335.5 -134.234375 339.703125 -171.242188 339.703125 -214.859375 C 339.703125 -259.671875 335.195312 -296.78125 326.1875 -326.1875 C 317.1875 -355.601562 302.882812 -377.613281 283.28125 -392.21875 C 263.675781 -406.820312 237.671875 -414.125 205.265625 -414.125 Z M 205.265625 -414.125 "/></g></g></g><g fill="#c66a3d" fill-opacity="1"><g transform="translate(854.18693, 984.580705)"><g><path d="M 205.859375 -424.921875 L 205.859375 -412.921875 C 193.054688 -412.515625 183.351562 -411.007812 176.75 -408.40625 C 170.144531 -405.8125 165.84375 -401.015625 163.84375 -394.015625 C 161.84375 -387.015625 160.84375 -376.109375 160.84375 -361.296875 L 160.84375 -63.625 C 160.84375 -49.21875 161.941406 -38.410156 164.140625 -31.203125 C 166.347656 -24.003906 170.648438 -19.203125 177.046875 -16.796875 C 183.453125 -14.398438 193.054688 -12.800781 205.859375 -12 L 205.859375 0 C 195.054688 -0.800781 181.453125 -1.300781 165.046875 -1.5 C 148.640625 -1.695312 132.035156 -1.796875 115.234375 -1.796875 C 95.628906 -1.796875 77.523438 -1.695312 60.921875 -1.5 C 44.316406 -1.300781 30.8125 -0.800781 20.40625 0 L 20.40625 -12 C 33.207031 -12.800781 42.804688 -14.398438 49.203125 -16.796875 C 55.609375 -19.203125 59.910156 -24.003906 62.109375 -31.203125 C 64.316406 -38.410156 65.421875 -49.21875 65.421875 -63.625 L 65.421875 -361.296875 C 65.421875 -376.109375 64.316406 -387.015625 62.109375 -394.015625 C 59.910156 -401.015625 55.507812 -405.8125 48.90625 -408.40625 C 42.3125 -411.007812 32.8125 -412.515625 20.40625 -412.921875 L 20.40625 -424.921875 C 30.8125 -424.523438 44.316406 -424.125 60.921875 -423.71875 C 77.523438 -423.320312 95.628906 -423.125 115.234375 -423.125 C 132.035156 -423.125 148.640625 -423.320312 165.046875 -423.71875 C 181.453125 -424.125 195.054688 -424.523438 205.859375 -424.921875 Z M 205.859375 -424.921875 "/></g></g></g><g fill="#c66a3d" fill-opacity="1"><g transform="translate(1082.849475, 984.580705)"><g><path d="M 385.3125 -424.921875 C 383.707031 -404.515625 382.601562 -384.90625 382 -366.09375 C 381.40625 -347.289062 381.109375 -332.890625 381.109375 -322.890625 C 381.109375 -314.085938 381.304688 -305.6875 381.703125 -297.6875 C 382.109375 -289.6875 382.507812 -282.882812 382.90625 -277.28125 L 369.109375 -277.28125 C 362.703125 -310.882812 354.597656 -337.488281 344.796875 -357.09375 C 334.992188 -376.707031 323.289062 -390.613281 309.6875 -398.8125 C 296.082031 -407.019531 280.078125 -411.125 261.671875 -411.125 L 247.875 -411.125 L 247.875 -68.421875 C 247.875 -52.410156 249.570312 -40.40625 252.96875 -32.40625 C 256.375 -24.40625 262.675781 -19.101562 271.875 -16.5 C 281.082031 -13.90625 294.488281 -12.40625 312.09375 -12 L 312.09375 0 C 299.6875 -0.394531 283.179688 -0.789062 262.578125 -1.1875 C 241.972656 -1.59375 220.46875 -1.796875 198.0625 -1.796875 C 176.050781 -1.796875 155.242188 -1.59375 135.640625 -1.1875 C 116.035156 -0.789062 100.226562 -0.394531 88.21875 0 L 88.21875 -12 C 106.226562 -12.40625 119.832031 -13.90625 129.03125 -16.5 C 138.238281 -19.101562 144.441406 -24.40625 147.640625 -32.40625 C 150.835938 -40.40625 152.4375 -52.410156 152.4375 -68.421875 L 152.4375 -411.125 L 139.234375 -411.125 C 120.828125 -411.125 104.820312 -407.019531 91.21875 -398.8125 C 77.613281 -390.613281 66.007812 -376.8125 56.40625 -357.40625 C 46.8125 -338 38.410156 -311.289062 31.203125 -277.28125 L 17.40625 -277.28125 C 18.207031 -282.882812 18.707031 -289.6875 18.90625 -297.6875 C 19.101562 -305.6875 19.203125 -314.085938 19.203125 -322.890625 C 19.203125 -332.890625 18.898438 -347.289062 18.296875 -366.09375 C 17.703125 -384.90625 16.601562 -404.515625 15 -424.921875 C 33.40625 -424.523438 53.507812 -424.125 75.3125 -423.71875 C 97.125 -423.320312 119.03125 -423.125 141.03125 -423.125 C 163.039062 -423.125 182.847656 -423.125 200.453125 -423.125 C 218.460938 -423.125 238.367188 -423.125 260.171875 -423.125 C 281.984375 -423.125 303.890625 -423.320312 325.890625 -423.71875 C 347.898438 -424.125 367.707031 -424.523438 385.3125 -424.921875 Z M 385.3125 -424.921875 "/></g></g></g><g fill="#c66a3d" fill-opacity="1"><g transform="translate(1472.961169, 984.580705)"><g/></g></g><g fill="#c66a3d" fill-opacity="1"><g transform="translate(29.862736, 338.852207)"><g><path d="M 36.59375 -91.953125 L 0.59375 -91.953125 L 0.59375 -105 L 87.453125 -105 L 87.453125 -91.953125 L 51.453125 -91.953125 L 51.453125 0 L 36.59375 0 Z M 36.59375 -91.953125 "/></g></g></g><g fill="#c66a3d" fill-opacity="1"><g transform="translate(135.912745, 338.852207)"><g><path d="M 106.046875 -105 L 106.046875 0 L 91.046875 0 L 91.046875 -46.796875 L 30.75 -46.796875 L 30.75 0 L 15.75 0 L 15.75 -105 L 30.75 -105 L 30.75 -59.84375 L 91.046875 -59.84375 L 91.046875 -105 Z M 106.046875 -105 "/></g></g></g><g fill="#c66a3d" fill-opacity="1"><g transform="translate(275.712748, 338.852207)"><g><path d="M 91.953125 -13.046875 L 91.953125 0 L 15.75 0 L 15.75 -105 L 89.84375 -105 L 89.84375 -91.953125 L 30.75 -91.953125 L 30.75 -59.703125 L 83.40625 -59.703125 L 83.40625 -46.953125 L 30.75 -46.953125 L 30.75 -13.046875 Z M 91.953125 -13.046875 "/></g></g></g><g fill="#c66a3d" fill-opacity="1"><g transform="translate(468.83168, 1313.249867)"><g><path d="M 36.59375 -91.953125 L 0.59375 -91.953125 L 0.59375 -105 L 87.453125 -105 L 87.453125 -91.953125 L 51.453125 -91.953125 L 51.453125 0 L 36.59375 0 Z M 36.59375 -91.953125 "/></g></g></g><g fill="#c66a3d" fill-opacity="1"><g transform="translate(574.881689, 1313.249867)"><g><path d="M 85.953125 0 L 63.296875 -32.25 C 60.492188 -32.050781 58.296875 -31.953125 56.703125 -31.953125 L 30.75 -31.953125 L 30.75 0 L 15.75 0 L 15.75 -105 L 56.703125 -105 C 70.296875 -105 80.992188 -101.75 88.796875 -95.25 C 96.597656 -88.75 100.5 -79.800781 100.5 -68.40625 C 100.5 -60.300781 98.5 -53.398438 94.5 -47.703125 C 90.5 -42.003906 84.800781 -37.851562 77.40625 -35.25 L 102.296875 0 Z M 56.25 -44.703125 C 65.75 -44.703125 73 -46.75 78 -50.84375 C 83 -54.945312 85.5 -60.800781 85.5 -68.40625 C 85.5 -76 83 -81.820312 78 -85.875 C 73 -89.925781 65.75 -91.953125 56.25 -91.953125 L 30.75 -91.953125 L 30.75 -44.703125 Z M 56.25 -44.703125 "/></g></g></g><g fill="#c66a3d" fill-opacity="1"><g transform="translate(701.931693, 1313.249867)"><g><path d="M 82.65625 -26.25 L 26.84375 -26.25 L 15.296875 0 L -0.15625 0 L 47.40625 -105 L 62.25 -105 L 109.953125 0 L 94.203125 0 Z M 77.40625 -38.25 L 54.75 -89.703125 L 32.09375 -38.25 Z M 77.40625 -38.25 "/></g></g></g><g fill="#c66a3d" fill-opacity="1"><g transform="translate(824.181728, 1313.249867)"><g><path d="M 106.953125 -105 L 60.90625 0 L 46.046875 0 L -0.15625 -105 L 16.046875 -105 L 53.84375 -18.75 L 91.953125 -105 Z M 106.953125 -105 "/></g></g></g><g fill="#c66a3d" fill-opacity="1"><g transform="translate(946.731736, 1313.249867)"><g><path d="M 91.953125 -13.046875 L 91.953125 0 L 15.75 0 L 15.75 -105 L 89.84375 -105 L 89.84375 -91.953125 L 30.75 -91.953125 L 30.75 -59.703125 L 83.40625 -59.703125 L 83.40625 -46.953125 L 30.75 -46.953125 L 30.75 -13.046875 Z M 91.953125 -13.046875 "/></g></g></g><g fill="#c66a3d" fill-opacity="1"><g transform="translate(1065.231771, 1313.249867)"><g><path d="M 15.75 -105 L 30.75 -105 L 30.75 -13.046875 L 87.59375 -13.046875 L 87.59375 0 L 15.75 0 Z M 15.75 -105 "/></g></g></g><g fill="#c66a3d" fill-opacity="1"><g transform="translate(1172.331799, 1313.249867)"><g/></g></g><g fill="#c66a3d" fill-opacity="1"><g transform="translate(1230.681785, 1313.249867)"><g><path d="M 62.703125 1.203125 C 52.203125 1.203125 42.722656 -1.117188 34.265625 -5.765625 C 25.816406 -10.421875 19.191406 -16.820312 14.390625 -24.96875 C 9.597656 -33.125 7.203125 -42.300781 7.203125 -52.5 C 7.203125 -62.695312 9.597656 -71.867188 14.390625 -80.015625 C 19.191406 -88.171875 25.84375 -94.570312 34.34375 -99.21875 C 42.84375 -103.875 52.34375 -106.203125 62.84375 -106.203125 C 71.050781 -106.203125 78.550781 -104.828125 85.34375 -102.078125 C 92.144531 -99.328125 97.945312 -95.25 102.75 -89.84375 L 93 -80.40625 C 85.101562 -88.695312 75.253906 -92.84375 63.453125 -92.84375 C 55.648438 -92.84375 48.597656 -91.09375 42.296875 -87.59375 C 35.992188 -84.09375 31.066406 -79.269531 27.515625 -73.125 C 23.972656 -66.976562 22.203125 -60.101562 22.203125 -52.5 C 22.203125 -44.894531 23.972656 -38.019531 27.515625 -31.875 C 31.066406 -25.726562 35.992188 -20.90625 42.296875 -17.40625 C 48.597656 -13.90625 55.648438 -12.15625 63.453125 -12.15625 C 75.148438 -12.15625 85 -16.351562 93 -24.75 L 102.75 -15.296875 C 97.945312 -9.898438 92.117188 -5.800781 85.265625 -3 C 78.421875 -0.195312 70.898438 1.203125 62.703125 1.203125 Z M 62.703125 1.203125 "/></g></g></g><g fill="#c66a3d" fill-opacity="1"><g transform="translate(1354.881802, 1313.249867)"><g><path d="M 63.15625 1.203125 C 52.550781 1.203125 43 -1.117188 34.5 -5.765625 C 26 -10.421875 19.320312 -16.847656 14.46875 -25.046875 C 9.625 -33.242188 7.203125 -42.394531 7.203125 -52.5 C 7.203125 -62.601562 9.625 -71.753906 14.46875 -79.953125 C 19.320312 -88.148438 26 -94.570312 34.5 -99.21875 C 43 -103.875 52.550781 -106.203125 63.15625 -106.203125 C 73.65625 -106.203125 83.15625 -103.875 91.65625 -99.21875 C 100.15625 -94.570312 106.800781 -88.171875 111.59375 -80.015625 C 116.394531 -71.867188 118.796875 -62.695312 118.796875 -52.5 C 118.796875 -42.300781 116.394531 -33.125 111.59375 -24.96875 C 106.800781 -16.820312 100.15625 -10.421875 91.65625 -5.765625 C 83.15625 -1.117188 73.65625 1.203125 63.15625 1.203125 Z M 63.15625 -12.15625 C 70.851562 -12.15625 77.773438 -13.90625 83.921875 -17.40625 C 90.078125 -20.90625 94.925781 -25.726562 98.46875 -31.875 C 102.019531 -38.019531 103.796875 -44.894531 103.796875 -52.5 C 103.796875 -60.101562 102.019531 -66.976562 98.46875 -73.125 C 94.925781 -79.269531 90.078125 -84.09375 83.921875 -87.59375 C 77.773438 -91.09375 70.851562 -92.84375 63.15625 -92.84375 C 55.445312 -92.84375 48.46875 -91.09375 42.21875 -87.59375 C 35.96875 -84.09375 31.066406 -79.269531 27.515625 -73.125 C 23.972656 -66.976562 22.203125 -60.101562 22.203125 -52.5 C 22.203125 -44.894531 23.972656 -38.019531 27.515625 -31.875 C 31.066406 -25.726562 35.96875 -20.90625 42.21875 -17.40625 C 48.46875 -13.90625 55.445312 -12.15625 63.15625 -12.15625 Z M 63.15625 -12.15625 "/></g></g></g></svg>